<?xml version="1.0" encoding="UTF-8" standalone="no"?>
<!-- Generator: Adobe Illustrator 18.0.0, SVG Export Plug-In . SVG Version: 6.00 Build 0)  -->

<svg
   xmlns:dc="http://purl.org/dc/elements/1.1/"
   xmlns:cc="http://creativecommons.org/ns#"
   xmlns:rdf="http://www.w3.org/1999/02/22-rdf-syntax-ns#"
   xmlns:svg="http://www.w3.org/2000/svg"
   xmlns="http://www.w3.org/2000/svg"
   xmlns:sodipodi="http://sodipodi.sourceforge.net/DTD/sodipodi-0.dtd"
   xmlns:inkscape="http://www.inkscape.org/namespaces/inkscape"
   version="1.1"
   id="Layer_1"
   x="0px"
   y="0px"
   viewBox="0 0 64 64"
   enable-background="new 0 0 64 64"
   xml:space="preserve"
   sodipodi:docname="heart-icon.svg"
   inkscape:version="0.92.2 5c3e80d, 2017-08-06"><metadata
     id="metadata897"><rdf:RDF><cc:Work
         rdf:about=""><dc:format>image/svg+xml</dc:format><dc:type
           rdf:resource="http://purl.org/dc/dcmitype/StillImage" /></cc:Work></rdf:RDF></metadata><defs
     id="defs895" /><sodipodi:namedview
     pagecolor="#ffffff"
     bordercolor="#666666"
     borderopacity="1"
     objecttolerance="10"
     gridtolerance="10"
     guidetolerance="10"
     inkscape:pageopacity="0"
     inkscape:pageshadow="2"
     inkscape:window-width="1360"
     inkscape:window-height="704"
     id="namedview893"
     showgrid="false"
     inkscape:zoom="7.984375"
     inkscape:cx="32"
     inkscape:cy="32"
     inkscape:window-x="0"
     inkscape:window-y="27"
     inkscape:window-maximized="1"
     inkscape:current-layer="Layer_1" /><g
     id="g890"
     style="fill:#000000;fill-opacity:0.28630706;stroke:#797979;stroke-width:4.4031496;stroke-miterlimit:4;stroke-dasharray:none;stroke-opacity:1"
     transform="matrix(0.9432397,0,0,0.9432397,1.875038,0.068023)"><g
       id="g888"
       style="fill:#000000;fill-opacity:0.28630706;stroke:#797979;stroke-width:4.4031496;stroke-miterlimit:4;stroke-dasharray:none;stroke-opacity:1"><path
         d="M 32,61 30.9,60.2 C 29.6,59.3 0,38.8 0,22 V 20.9 C 0,11.3 7.9,3.4 17.6,3.4 23.5,3.4 28.8,6.3 32,11 35.2,6.3 40.6,3.4 46.4,3.4 56.1,3.4 64,11.2 64,20.9 V 22 C 64,38.7 34.4,59.3 33.1,60.2 Z M 17.6,7.4 C 10.1,7.4 4,13.5 4,20.9 V 22 c 0,6 5,13.8 14.3,22.8 5.7,5.3 11.3,9.6 13.7,11.3 2.4,-1.7 8,-6 13.7,-11.3 C 55,35.8 60,28 60,22 V 20.9 C 60,13.5 53.9,7.4 46.4,7.4 40.8,7.4 35.9,10.7 33.8,15.9 L 32,20.6 30.1,16 c -2,-5.2 -7,-8.6 -12.5,-8.6 z"
         id="path886"
         style="fill:#000000;fill-opacity:0.28630706;stroke:#797979;stroke-width:4.4031496;stroke-miterlimit:4;stroke-dasharray:none;stroke-opacity:1"
         inkscape:connector-curvature="0" /></g></g></svg>