<?xml version="1.0" encoding="UTF-8" standalone="no"?>
<!-- Created with Inkscape (http://www.inkscape.org/) -->

<svg
   xmlns:dc="http://purl.org/dc/elements/1.1/"
   xmlns:cc="http://creativecommons.org/ns#"
   xmlns:rdf="http://www.w3.org/1999/02/22-rdf-syntax-ns#"
   xmlns:svg="http://www.w3.org/2000/svg"
   xmlns="http://www.w3.org/2000/svg"
   xmlns:sodipodi="http://sodipodi.sourceforge.net/DTD/sodipodi-0.dtd"
   xmlns:inkscape="http://www.inkscape.org/namespaces/inkscape"
   width="55.054897mm"
   height="55.293896mm"
   viewBox="0 0 55.054897 55.293896"
   version="1.1"
   id="svg8"
   sodipodi:docname="little-checkmark-icon.svg"
   inkscape:version="0.92.2 5c3e80d, 2017-08-06">
  <defs
     id="defs2" />
  <sodipodi:namedview
     id="base"
     pagecolor="#ffffff"
     bordercolor="#666666"
     borderopacity="1.0"
     inkscape:pageopacity="0.0"
     inkscape:pageshadow="2"
     inkscape:zoom="0.35"
     inkscape:cx="83.375445"
     inkscape:cy="154.47678"
     inkscape:document-units="mm"
     inkscape:current-layer="layer1"
     showgrid="false"
     inkscape:window-width="1360"
     inkscape:window-height="704"
     inkscape:window-x="0"
     inkscape:window-y="27"
     inkscape:window-maximized="1" />
  <metadata
     id="metadata5">
    <rdf:RDF>
      <cc:Work
         rdf:about="">
        <dc:format>image/svg+xml</dc:format>
        <dc:type
           rdf:resource="http://purl.org/dc/dcmitype/StillImage" />
      </cc:Work>
    </rdf:RDF>
  </metadata>
  <g
     inkscape:label="Layer 1"
     inkscape:groupmode="layer"
     id="layer1"
     transform="translate(-71.247061,-98.626489)">
    <path
       sodipodi:type="star"
       style="opacity:1;fill:#00aac3;fill-opacity:0.99607843;stroke:#cbee2f;stroke-width:0.26458332;stroke-opacity:0"
       id="path838"
       sodipodi:sides="11"
       sodipodi:cx="98.425018"
       sodipodi:cy="126.38157"
       sodipodi:r1="24.148987"
       sodipodi:r2="27.757456"
       sodipodi:arg1="1.4616429"
       sodipodi:arg2="1.7472422"
       inkscape:flatsided="false"
       inkscape:rounded="0.35"
       inkscape:randomized="0"
       d="m 101.05573,150.38684 c -2.85474,0.31285 -4.675782,3.82531 -7.503026,3.32122 -2.827245,-0.5041 -3.322116,-4.4295 -5.892817,-5.7097 -2.5707,-1.28021 -6.001642,0.69014 -8.107535,-1.26246 -2.105894,-1.9526 -0.399976,-5.5224 -1.870456,-7.9892 -1.47048,-2.4668 -5.422021,-2.66415 -6.137957,-5.44531 -0.715937,-2.78116 2.649152,-4.86198 2.74576,-7.73219 0.09661,-2.87021 -3.120947,-5.17259 -2.219621,-7.89932 0.901326,-2.72672 4.857194,-2.65792 6.490218,-5.02026 1.633023,-2.36234 0.171006,-6.03877 2.403429,-7.84534 2.232423,-1.80658 5.523111,0.39001 8.174077,-0.71444 2.650965,-1.10445 3.408665,-4.987685 6.263407,-5.300533 2.854742,-0.312849 4.435479,3.314123 7.262721,3.818213 2.82725,0.5041 5.5641,-2.35304 8.1348,-1.07283 2.5707,1.2802 1.93961,5.18601 4.04551,7.13861 2.10589,1.9526 5.95297,1.02867 7.42345,3.49548 1.47048,2.4668 -1.17207,5.41138 -0.45613,8.19255 0.71593,2.78116 4.45181,4.08379 4.3552,6.954 -0.0966,2.8702 -3.91162,3.91868 -4.81294,6.64541 -0.90133,2.72672 1.53724,5.84233 -0.0958,8.20468 -1.63302,2.36234 -5.40926,1.18182 -7.64169,2.98839 -2.23242,1.80658 -1.86539,5.74599 -4.51636,6.85044 -2.65097,1.10444 -5.18951,-1.93026 -8.04425,-1.61741 z" />
    <path
       style="fill:none;stroke:#ffffff;stroke-width:5.9000001;stroke-linecap:butt;stroke-linejoin:miter;stroke-miterlimit:4;stroke-dasharray:none;stroke-opacity:1"
       d="M 111.50297,114.4375 94.494047,135.98214 86.556548,128.8006"
       id="path846"
       inkscape:connector-curvature="0" />
  </g>
</svg>
