<?xml version="1.0" encoding="UTF-8" standalone="no"?>
<!-- Generator: Adobe Illustrator 19.0.0, SVG Export Plug-In . SVG Version: 6.00 Build 0)  -->

<svg
   xmlns:dc="http://purl.org/dc/elements/1.1/"
   xmlns:cc="http://creativecommons.org/ns#"
   xmlns:rdf="http://www.w3.org/1999/02/22-rdf-syntax-ns#"
   xmlns:svg="http://www.w3.org/2000/svg"
   xmlns="http://www.w3.org/2000/svg"
   xmlns:sodipodi="http://sodipodi.sourceforge.net/DTD/sodipodi-0.dtd"
   xmlns:inkscape="http://www.inkscape.org/namespaces/inkscape"
   version="1.1"
   id="Capa_1"
   x="0px"
   y="0px"
   viewBox="0 0 33 33"
   style="enable-background:new 0 0 33 33;"
   xml:space="preserve"
   sodipodi:docname="speech-bubble.svg"
   inkscape:version="0.92.2 5c3e80d, 2017-08-06"><metadata
     id="metadata933"><rdf:RDF><cc:Work
         rdf:about=""><dc:format>image/svg+xml</dc:format><dc:type
           rdf:resource="http://purl.org/dc/dcmitype/StillImage" /></cc:Work></rdf:RDF></metadata><defs
     id="defs931" /><sodipodi:namedview
     pagecolor="#ffffff"
     bordercolor="#666666"
     borderopacity="1"
     objecttolerance="10"
     gridtolerance="10"
     guidetolerance="10"
     inkscape:pageopacity="0"
     inkscape:pageshadow="2"
     inkscape:window-width="1360"
     inkscape:window-height="704"
     id="namedview929"
     showgrid="false"
     inkscape:zoom="7.7424243"
     inkscape:cx="40.25756"
     inkscape:cy="4.5158951"
     inkscape:window-x="0"
     inkscape:window-y="27"
     inkscape:window-maximized="1"
     inkscape:current-layer="Capa_1" /><g
     id="g896"
     transform="translate(-43.404181,-0.52514095)"><path
       d="m 7.282,32.706 c -0.081,0 -0.163,-0.02 -0.237,-0.06 C 6.883,32.559 6.782,32.389 6.782,32.206 V 25.082 C 2.405,22.806 0,18.821 0,13.828 0,6.112 7.093,0.294 16.5,0.294 c 9.407,0 16.5,5.818 16.5,13.534 0,7.715 -7.093,13.533 -16.5,13.533 -0.309,0 -0.612,-0.017 -0.916,-0.033 l -0.02,-10e-4 -8.007,5.296 C 7.474,32.678 7.378,32.706 7.282,32.706 Z M 16.5,1.294 C 7.664,1.294 1,6.683 1,13.828 c 0,3.323 1.128,7.842 6.503,10.499 0.17,0.084 0.278,0.258 0.278,0.448 v 6.501 l 7.369,-4.874 c 0.09,-0.06 0.199,-0.095 0.302,-0.082 l 0.186,0.01 c 0.286,0.016 0.571,0.031 0.861,0.031 8.836,0 15.5,-5.388 15.5,-12.533 C 31.999,6.683 25.336,1.294 16.5,1.294 Z"
       id="path894"
       inkscape:connector-curvature="0" /></g><g
     id="g898" /><g
     id="g900" /><g
     id="g902" /><g
     id="g904" /><g
     id="g906" /><g
     id="g908" /><g
     id="g910" /><g
     id="g912" /><g
     id="g914" /><g
     id="g916" /><g
     id="g918" /><g
     id="g920" /><g
     id="g922" /><g
     id="g924" /><g
     id="g926" /><path
     style="opacity:1;fill:#ffffff;fill-opacity:0.99607843;stroke:#cbee2f;stroke-width:1.44006658;stroke-miterlimit:4;stroke-dasharray:none;stroke-opacity:0"
     d="M 6.9720269,32.534317 6.8195695,32.410904 6.7872798,28.725336 6.7549902,25.039767 6.06347,24.624468 C 5.0113709,23.992618 4.4450677,23.545439 3.5260274,22.620784 2.3036638,21.390953 1.5014906,20.176506 0.91480398,18.667533 -0.3675027,15.369407 -0.23544105,11.569769 1.266298,8.5544563 1.8849932,7.3121897 2.5633151,6.3536033 3.554232,5.3212089 7.5631002,1.1445389 14.43372,-0.61500234 21.091585,0.82995501 c 3.207228,0.69606509 6.021963,2.17732519 8.141708,4.28459059 1.851719,1.8408173 2.963544,3.8611451 3.499927,6.3598084 0.161413,0.751921 0.173495,0.917298 0.172312,2.358523 -0.0012,1.432492 -0.01436,1.611339 -0.174069,2.360911 -0.441417,2.071775 -1.333511,3.874337 -2.752767,5.56224 -2.241803,2.666143 -5.901725,4.603994 -9.96835,5.278027 -1.19619,0.198266 -2.027652,0.26522 -3.31349,0.266818 l -1.167122,0.0015 -4.051956,2.677703 c -2.4275784,1.604243 -4.1123575,2.677701 -4.2026251,2.677701 -0.082867,0 -0.2192737,-0.05554 -0.303126,-0.123413 z m 4.5756661,-3.701545 3.731759,-2.468794 0.90411,0.02002 C 21.907991,26.51079 27.166436,24.192667 29.932177,20.323092 32.65283,16.516598 32.732463,11.51511 30.134223,7.6332681 27.351947,3.4764711 22.016323,1.1064737 15.860665,1.2931864 12.854084,1.3843818 10.268409,2.0173082 7.9114303,3.2390146 4.1804278,5.1729271 1.8267045,8.187856 1.1226264,11.934923 c -0.17016581,0.905613 -0.15203524,3.173086 0.033507,4.190517 0.4329136,2.373905 1.3874665,4.266284 2.9421742,5.83279 0.857828,0.864338 1.9948149,1.693611 3.0576467,2.230127 0.2183289,0.110212 0.4426482,0.265612 0.4984879,0.345334 0.089111,0.127224 0.1015264,0.549892 0.1015264,3.456412 0,1.821305 0.013492,3.311463 0.029982,3.311463 0.016491,0 1.7092747,-1.110957 3.7617424,-2.468794 z"
     id="path935"
     inkscape:connector-curvature="0" /><path
     style="opacity:1;fill:#777777;fill-opacity:0.99607843;stroke:#8e8e8e;stroke-width:2.08032012;stroke-miterlimit:4;stroke-dasharray:none;stroke-opacity:0.97510376"
     d="M 7.6526607,31.558565 C 7.5263225,31.468785 7.5244706,31.429917 7.479904,27.933159 L 7.434854,24.398508 6.8014922,24.013188 C 5.903839,23.467081 5.2992334,22.987873 4.5377313,22.218939 3.1255257,20.792949 2.2990172,19.445963 1.7218434,17.629802 0.53802308,13.904743 1.1742706,9.9193066 3.443474,6.8455602 5.7514647,3.7192748 9.4670151,1.7016991 14.13093,1.0421803 c 1.078974,-0.15257645 3.785387,-0.15089491 4.889487,0.00304 4.006785,0.558623 7.115586,2.0067934 9.521234,4.4352687 1.672059,1.687924 2.701515,3.5498593 3.241984,5.863645 0.167,0.71494 0.172759,0.793702 0.173459,2.37253 6.63e-4,1.490667 -0.01172,1.689415 -0.141896,2.279605 -0.519287,2.354187 -1.616208,4.356711 -3.330684,6.080445 -1.977238,1.987915 -4.841186,3.463312 -7.976249,4.109059 -1.127846,0.232308 -2.124325,0.339036 -3.603591,0.385957 l -1.326135,0.04206 -1.650074,1.109028 c -4.2078756,2.82814 -5.9008346,3.926497 -6.0521445,3.926497 -0.052774,0 -0.1534212,-0.04084 -0.2236598,-0.09076 z m 0.9077197,-1.212823 c 0.072011,-0.0391 1.6569166,-1.092874 3.5220156,-2.341722 l 3.391085,-2.270629 h 1.205197 c 1.709555,0 2.823737,-0.12664 4.346125,-0.493982 2.23872,-0.540192 4.541492,-1.677185 6.134635,-3.028976 2.054731,-1.74345 3.328498,-3.845938 3.857812,-6.367734 0.167144,-0.796316 0.229824,-2.53249 0.122757,-3.400193 C 30.493594,7.2037968 26.094367,3.0984631 19.99224,2.0394762 18.642298,1.805202 17.665069,1.7410881 16.044429,1.7804689 13.14901,1.8508258 11.087993,2.3288155 8.8147388,3.457174 5.3537215,5.1750935 3.0935256,7.8397411 2.2568312,11.188589 2.029549,12.09828 1.9625253,12.906665 2.0012433,14.271282 c 0.038575,1.359568 0.1601037,2.130586 0.509948,3.235273 0.5155335,1.627877 1.2208645,2.798327 2.4146961,4.00703 0.8626015,0.873347 1.451317,1.334209 2.4486072,1.916834 1.0293826,0.601374 0.9033827,0.100347 0.955996,3.801427 0.024901,1.751743 0.057356,3.184988 0.072119,3.184988 0.014763,0 0.085761,-0.032 0.1577708,-0.07109 z"
     id="path937"
     inkscape:connector-curvature="0" /></svg>